<svg xmlns="http://www.w3.org/2000/svg" xmlns:xlink="http://www.w3.org/1999/xlink" width="500" zoomAndPan="magnify" viewBox="0 0 375 374.999991" height="500" preserveAspectRatio="xMidYMid meet" version="1.0"><defs><g/></defs><path fill="#feba00" d="M 219.289062 209.210938 C 229.757812 219.390625 247.683594 223.230469 262.984375 214.996094 C 274.414062 208.832031 284.527344 196.175781 283.289062 178.242188 C 282.453125 166.089844 261.441406 131.433594 249.554688 111.957031 C 240.578125 97.230469 233.09375 81.265625 220.425781 69.214844 C 194.101562 44.207031 161.535156 58.757812 150.785156 85.886719 C 159.8125 81.011719 166.539062 77.753906 182.597656 80.507812 C 211.902344 85.535156 226.875 125.421875 240.503906 149.167969 C 243.816406 154.925781 247.050781 160.585938 250.566406 166.597656 C 252.765625 170.359375 255.269531 174.78125 256.308594 179 C 259.164062 190.644531 247.683594 196.882812 237.847656 188.625 C 224.953125 177.785156 211.929688 148.03125 205.710938 136.964844 C 195.59375 118.929688 183.429688 100.210938 157.359375 104.605469 C 131.316406 109.027344 120.847656 136.15625 106.738281 161.191406 C 90.378906 190.164062 112.707031 223.457031 145.375 218.886719 C 154.984375 217.546875 161.609375 213.253906 166.769531 207.621094 C 170.28125 203.804688 177.691406 192.867188 179.613281 187.941406 L 164.769531 162.300781 C 164.515625 162.53125 164.390625 162.730469 163.632812 163.640625 L 153.769531 180.363281 C 142.59375 199.460938 126.816406 194.761719 127.851562 181.929688 C 128.585938 172.433594 137.890625 159.625 140.773438 154.722656 C 149.292969 140.171875 162.191406 116.707031 177.539062 140.730469 C 180.347656 145.148438 183.429688 151.035156 185.503906 154.574219 C 187.503906 157.957031 189.070312 160.8125 191.019531 164.222656 C 200.070312 178.367188 207.679688 197.917969 219.289062 209.210938 Z M 219.289062 209.210938 " fill-opacity="1" fill-rule="evenodd"/><g fill="#010f20" fill-opacity="1"><g transform="translate(61.601645, 260.43155)"><g><path d="M 16.796875 -4.96875 L 6.0625 -4.96875 L 3.953125 0 L -0.15625 0 L 9.5 -21.453125 L 13.421875 -21.453125 L 23.109375 0 L 18.9375 0 Z M 15.46875 -8.09375 L 11.421875 -17.46875 L 7.421875 -8.09375 Z M 15.46875 -8.09375 "/></g></g></g><g fill="#010f20" fill-opacity="1"><g transform="translate(89.396647, 260.43155)"><g><path d="M 18.078125 -11.15625 C 19.265625 -10.769531 20.203125 -10.117188 20.890625 -9.203125 C 21.585938 -8.296875 21.9375 -7.171875 21.9375 -5.828125 C 21.9375 -3.960938 21.222656 -2.523438 19.796875 -1.515625 C 18.367188 -0.503906 16.285156 0 13.546875 0 L 2.875 0 L 2.875 -21.453125 L 12.9375 -21.453125 C 15.46875 -21.453125 17.414062 -20.953125 18.78125 -19.953125 C 20.144531 -18.960938 20.828125 -17.601562 20.828125 -15.875 C 20.828125 -14.8125 20.582031 -13.867188 20.09375 -13.046875 C 19.601562 -12.234375 18.929688 -11.601562 18.078125 -11.15625 Z M 6.859375 -18.328125 L 6.859375 -12.40625 L 12.5 -12.40625 C 13.882812 -12.40625 14.953125 -12.65625 15.703125 -13.15625 C 16.453125 -13.65625 16.828125 -14.382812 16.828125 -15.34375 C 16.828125 -16.332031 16.453125 -17.078125 15.703125 -17.578125 C 14.953125 -18.078125 13.882812 -18.328125 12.5 -18.328125 Z M 13.296875 -3.125 C 16.378906 -3.125 17.921875 -4.15625 17.921875 -6.21875 C 17.921875 -8.28125 16.378906 -9.3125 13.296875 -9.3125 L 6.859375 -9.3125 L 6.859375 -3.125 Z M 13.296875 -3.125 "/></g></g></g><g fill="#010f20" fill-opacity="1"><g transform="translate(117.559393, 260.43155)"><g><path d="M 2.875 -21.453125 L 12.25 -21.453125 C 14.539062 -21.453125 16.570312 -21.003906 18.34375 -20.109375 C 20.125 -19.222656 21.503906 -17.96875 22.484375 -16.34375 C 23.472656 -14.71875 23.96875 -12.84375 23.96875 -10.71875 C 23.96875 -8.59375 23.472656 -6.71875 22.484375 -5.09375 C 21.503906 -3.476562 20.125 -2.222656 18.34375 -1.328125 C 16.570312 -0.441406 14.539062 0 12.25 0 L 2.875 0 Z M 12.078125 -3.375 C 13.648438 -3.375 15.03125 -3.671875 16.21875 -4.265625 C 17.414062 -4.867188 18.335938 -5.726562 18.984375 -6.84375 C 19.628906 -7.957031 19.953125 -9.25 19.953125 -10.71875 C 19.953125 -12.195312 19.628906 -13.488281 18.984375 -14.59375 C 18.335938 -15.707031 17.414062 -16.566406 16.21875 -17.171875 C 15.03125 -17.773438 13.648438 -18.078125 12.078125 -18.078125 L 6.859375 -18.078125 L 6.859375 -3.375 Z M 12.078125 -3.375 "/></g></g></g><g fill="#010f20" fill-opacity="1"><g transform="translate(147.714029, 260.43155)"><g><path d="M 2.875 -21.453125 L 6.859375 -21.453125 L 6.859375 0 L 2.875 0 Z M 2.875 -21.453125 "/></g></g></g><g fill="#010f20" fill-opacity="1"><g transform="translate(162.331858, 260.43155)"><g/></g></g><g fill="#010f20" fill-opacity="1"><g transform="translate(175.631964, 260.43155)"><g><path d="M 19.546875 -3.375 L 19.546875 0 L 1.25 0 L 1.25 -2.671875 L 13.875 -18.078125 L 1.46875 -18.078125 L 1.46875 -21.453125 L 19.15625 -21.453125 L 19.15625 -18.78125 L 6.53125 -3.375 Z M 19.546875 -3.375 "/></g></g></g><g fill="#010f20" fill-opacity="1"><g transform="translate(200.791546, 260.43155)"><g><path d="M 16.796875 -4.96875 L 6.0625 -4.96875 L 3.953125 0 L -0.15625 0 L 9.5 -21.453125 L 13.421875 -21.453125 L 23.109375 0 L 18.9375 0 Z M 15.46875 -8.09375 L 11.421875 -17.46875 L 7.421875 -8.09375 Z M 15.46875 -8.09375 "/></g></g></g><g fill="#010f20" fill-opacity="1"><g transform="translate(228.586543, 260.43155)"><g><path d="M 22.578125 0 L 22.546875 -14.21875 L 15.5 -2.453125 L 13.734375 -2.453125 L 6.671875 -14.03125 L 6.671875 0 L 2.875 0 L 2.875 -21.453125 L 6.15625 -21.453125 L 14.671875 -7.234375 L 23.046875 -21.453125 L 26.3125 -21.453125 L 26.34375 0 Z M 22.578125 0 "/></g></g></g><g fill="#010f20" fill-opacity="1"><g transform="translate(262.694329, 260.43155)"><g><path d="M 18.96875 -3.34375 L 18.96875 0 L 2.875 0 L 2.875 -21.453125 L 18.53125 -21.453125 L 18.53125 -18.109375 L 6.859375 -18.109375 L 6.859375 -12.53125 L 17.21875 -12.53125 L 17.21875 -9.25 L 6.859375 -9.25 L 6.859375 -3.34375 Z M 18.96875 -3.34375 "/></g></g></g><g fill="#010f20" fill-opacity="1"><g transform="translate(288.068419, 260.43155)"><g><path d="M 2.875 -21.453125 L 12.25 -21.453125 C 14.539062 -21.453125 16.570312 -21.003906 18.34375 -20.109375 C 20.125 -19.222656 21.503906 -17.96875 22.484375 -16.34375 C 23.472656 -14.71875 23.96875 -12.84375 23.96875 -10.71875 C 23.96875 -8.59375 23.472656 -6.71875 22.484375 -5.09375 C 21.503906 -3.476562 20.125 -2.222656 18.34375 -1.328125 C 16.570312 -0.441406 14.539062 0 12.25 0 L 2.875 0 Z M 12.078125 -3.375 C 13.648438 -3.375 15.03125 -3.671875 16.21875 -4.265625 C 17.414062 -4.867188 18.335938 -5.726562 18.984375 -6.84375 C 19.628906 -7.957031 19.953125 -9.25 19.953125 -10.71875 C 19.953125 -12.195312 19.628906 -13.488281 18.984375 -14.59375 C 18.335938 -15.707031 17.414062 -16.566406 16.21875 -17.171875 C 15.03125 -17.773438 13.648438 -18.078125 12.078125 -18.078125 L 6.859375 -18.078125 L 6.859375 -3.375 Z M 12.078125 -3.375 "/></g></g></g><g fill="#feba00" fill-opacity="1"><g transform="translate(70.296957, 281.431549)"><g><path d="M 4.34375 0.140625 C 3.582031 0.140625 2.851562 0.0351562 2.15625 -0.171875 C 1.457031 -0.390625 0.898438 -0.675781 0.484375 -1.03125 L 1.109375 -2.4375 C 1.515625 -2.125 2.003906 -1.867188 2.578125 -1.671875 C 3.160156 -1.472656 3.75 -1.375 4.34375 -1.375 C 5.0625 -1.375 5.597656 -1.488281 5.953125 -1.71875 C 6.316406 -1.945312 6.5 -2.253906 6.5 -2.640625 C 6.5 -2.921875 6.398438 -3.148438 6.203125 -3.328125 C 6.003906 -3.503906 5.75 -3.644531 5.4375 -3.75 C 5.132812 -3.851562 4.71875 -3.972656 4.1875 -4.109375 C 3.4375 -4.285156 2.832031 -4.457031 2.375 -4.625 C 1.914062 -4.800781 1.519531 -5.078125 1.1875 -5.453125 C 0.863281 -5.835938 0.703125 -6.347656 0.703125 -6.984375 C 0.703125 -7.523438 0.847656 -8.015625 1.140625 -8.453125 C 1.429688 -8.898438 1.867188 -9.253906 2.453125 -9.515625 C 3.046875 -9.773438 3.769531 -9.90625 4.625 -9.90625 C 5.226562 -9.90625 5.816406 -9.828125 6.390625 -9.671875 C 6.960938 -9.523438 7.460938 -9.316406 7.890625 -9.046875 L 7.3125 -7.625 C 6.882812 -7.882812 6.4375 -8.078125 5.96875 -8.203125 C 5.507812 -8.335938 5.0625 -8.40625 4.625 -8.40625 C 3.90625 -8.40625 3.367188 -8.28125 3.015625 -8.03125 C 2.671875 -7.789062 2.5 -7.472656 2.5 -7.078125 C 2.5 -6.796875 2.597656 -6.566406 2.796875 -6.390625 C 2.992188 -6.210938 3.242188 -6.070312 3.546875 -5.96875 C 3.859375 -5.863281 4.28125 -5.75 4.8125 -5.625 C 5.539062 -5.457031 6.132812 -5.28125 6.59375 -5.09375 C 7.0625 -4.914062 7.457031 -4.640625 7.78125 -4.265625 C 8.113281 -3.898438 8.28125 -3.398438 8.28125 -2.765625 C 8.28125 -2.222656 8.132812 -1.734375 7.84375 -1.296875 C 7.550781 -0.859375 7.109375 -0.507812 6.515625 -0.25 C 5.921875 0.0078125 5.195312 0.140625 4.34375 0.140625 Z M 4.34375 0.140625 "/></g></g></g><g fill="#feba00" fill-opacity="1"><g transform="translate(82.487008, 281.431549)"><g><path d="M 5.875 0.140625 C 4.875 0.140625 3.972656 -0.0703125 3.171875 -0.5 C 2.378906 -0.9375 1.753906 -1.535156 1.296875 -2.296875 C 0.835938 -3.066406 0.609375 -3.929688 0.609375 -4.890625 C 0.609375 -5.835938 0.835938 -6.691406 1.296875 -7.453125 C 1.753906 -8.222656 2.378906 -8.820312 3.171875 -9.25 C 3.972656 -9.6875 4.875 -9.90625 5.875 -9.90625 C 6.875 -9.90625 7.769531 -9.6875 8.5625 -9.25 C 9.363281 -8.820312 9.992188 -8.226562 10.453125 -7.46875 C 10.910156 -6.707031 11.140625 -5.847656 11.140625 -4.890625 C 11.140625 -3.929688 10.910156 -3.066406 10.453125 -2.296875 C 9.992188 -1.535156 9.363281 -0.9375 8.5625 -0.5 C 7.769531 -0.0703125 6.875 0.140625 5.875 0.140625 Z M 5.875 -1.453125 C 6.519531 -1.453125 7.101562 -1.597656 7.625 -1.890625 C 8.144531 -2.179688 8.554688 -2.585938 8.859375 -3.109375 C 9.160156 -3.640625 9.3125 -4.234375 9.3125 -4.890625 C 9.3125 -5.535156 9.160156 -6.117188 8.859375 -6.640625 C 8.554688 -7.171875 8.144531 -7.582031 7.625 -7.875 C 7.101562 -8.164062 6.519531 -8.3125 5.875 -8.3125 C 5.21875 -8.3125 4.628906 -8.164062 4.109375 -7.875 C 3.585938 -7.582031 3.175781 -7.171875 2.875 -6.640625 C 2.582031 -6.117188 2.4375 -5.535156 2.4375 -4.890625 C 2.4375 -4.234375 2.582031 -3.640625 2.875 -3.109375 C 3.175781 -2.585938 3.585938 -2.179688 4.109375 -1.890625 C 4.628906 -1.597656 5.21875 -1.453125 5.875 -1.453125 Z M 5.875 -1.453125 "/></g></g></g><g fill="#feba00" fill-opacity="1"><g transform="translate(97.647419, 281.431549)"><g><path d="M 3.125 -8.25 L 3.125 -5.28125 L 7.84375 -5.28125 L 7.84375 -3.734375 L 3.125 -3.734375 L 3.125 0 L 1.3125 0 L 1.3125 -9.765625 L 8.4375 -9.765625 L 8.4375 -8.25 Z M 3.125 -8.25 "/></g></g></g><g fill="#feba00" fill-opacity="1"><g transform="translate(109.949027, 281.431549)"><g><path d="M 3.296875 -8.234375 L 0.0625 -8.234375 L 0.0625 -9.765625 L 8.34375 -9.765625 L 8.34375 -8.234375 L 5.109375 -8.234375 L 5.109375 0 L 3.296875 0 Z M 3.296875 -8.234375 "/></g></g></g><g fill="#feba00" fill-opacity="1"><g transform="translate(121.762556, 281.431549)"><g><path d="M 15.578125 -9.765625 L 12.34375 0 L 10.421875 0 L 8.015625 -7.234375 L 5.546875 0 L 3.609375 0 L 0.375 -9.765625 L 2.265625 -9.765625 L 4.6875 -2.34375 L 7.21875 -9.765625 L 8.890625 -9.765625 L 11.359375 -2.296875 L 13.859375 -9.765625 Z M 15.578125 -9.765625 "/></g></g></g><g fill="#feba00" fill-opacity="1"><g transform="translate(141.134461, 281.431549)"><g><path d="M 7.640625 -2.265625 L 2.765625 -2.265625 L 1.796875 0 L -0.0625 0 L 4.328125 -9.765625 L 6.109375 -9.765625 L 10.515625 0 L 8.625 0 Z M 7.046875 -3.6875 L 5.203125 -7.953125 L 3.375 -3.6875 Z M 7.046875 -3.6875 "/></g></g></g><g fill="#feba00" fill-opacity="1"><g transform="translate(154.997947, 281.431549)"><g><path d="M 7.703125 0 L 5.703125 -2.859375 C 5.617188 -2.847656 5.492188 -2.84375 5.328125 -2.84375 L 3.125 -2.84375 L 3.125 0 L 1.3125 0 L 1.3125 -9.765625 L 5.328125 -9.765625 C 6.171875 -9.765625 6.90625 -9.625 7.53125 -9.34375 C 8.164062 -9.070312 8.648438 -8.675781 8.984375 -8.15625 C 9.316406 -7.632812 9.484375 -7.015625 9.484375 -6.296875 C 9.484375 -5.554688 9.300781 -4.921875 8.9375 -4.390625 C 8.582031 -3.859375 8.070312 -3.460938 7.40625 -3.203125 L 9.65625 0 Z M 7.65625 -6.296875 C 7.65625 -6.921875 7.453125 -7.398438 7.046875 -7.734375 C 6.640625 -8.066406 6.039062 -8.234375 5.25 -8.234375 L 3.125 -8.234375 L 3.125 -4.34375 L 5.25 -4.34375 C 6.039062 -4.34375 6.640625 -4.507812 7.046875 -4.84375 C 7.453125 -5.1875 7.65625 -5.671875 7.65625 -6.296875 Z M 7.65625 -6.296875 "/></g></g></g><g fill="#feba00" fill-opacity="1"><g transform="translate(168.610419, 281.431549)"><g><path d="M 8.640625 -1.515625 L 8.640625 0 L 1.3125 0 L 1.3125 -9.765625 L 8.4375 -9.765625 L 8.4375 -8.25 L 3.125 -8.25 L 3.125 -5.703125 L 7.84375 -5.703125 L 7.84375 -4.21875 L 3.125 -4.21875 L 3.125 -1.515625 Z M 8.640625 -1.515625 "/></g></g></g><g fill="#feba00" fill-opacity="1"><g transform="translate(181.372228, 281.431549)"><g/></g></g><g fill="#feba00" fill-opacity="1"><g transform="translate(188.639569, 281.431549)"><g><path d="M 1.3125 -9.765625 L 5.578125 -9.765625 C 6.617188 -9.765625 7.546875 -9.5625 8.359375 -9.15625 C 9.171875 -8.75 9.796875 -8.175781 10.234375 -7.4375 C 10.679688 -6.695312 10.90625 -5.847656 10.90625 -4.890625 C 10.90625 -3.921875 10.679688 -3.066406 10.234375 -2.328125 C 9.796875 -1.585938 9.171875 -1.015625 8.359375 -0.609375 C 7.546875 -0.203125 6.617188 0 5.578125 0 L 1.3125 0 Z M 5.5 -1.53125 C 6.21875 -1.53125 6.847656 -1.664062 7.390625 -1.9375 C 7.929688 -2.21875 8.347656 -2.609375 8.640625 -3.109375 C 8.929688 -3.617188 9.078125 -4.210938 9.078125 -4.890625 C 9.078125 -5.554688 8.929688 -6.140625 8.640625 -6.640625 C 8.347656 -7.148438 7.929688 -7.539062 7.390625 -7.8125 C 6.847656 -8.09375 6.21875 -8.234375 5.5 -8.234375 L 3.125 -8.234375 L 3.125 -1.53125 Z M 5.5 -1.53125 "/></g></g></g><g fill="#feba00" fill-opacity="1"><g transform="translate(203.576855, 281.431549)"><g><path d="M 8.640625 -1.515625 L 8.640625 0 L 1.3125 0 L 1.3125 -9.765625 L 8.4375 -9.765625 L 8.4375 -8.25 L 3.125 -8.25 L 3.125 -5.703125 L 7.84375 -5.703125 L 7.84375 -4.21875 L 3.125 -4.21875 L 3.125 -1.515625 Z M 8.640625 -1.515625 "/></g></g></g><g fill="#feba00" fill-opacity="1"><g transform="translate(216.338664, 281.431549)"><g><path d="M 10.234375 -9.765625 L 5.984375 0 L 4.203125 0 L -0.0625 -9.765625 L 1.890625 -9.765625 L 5.15625 -2.234375 L 8.421875 -9.765625 Z M 10.234375 -9.765625 "/></g></g></g><g fill="#feba00" fill-opacity="1"><g transform="translate(229.923247, 281.431549)"><g><path d="M 8.640625 -1.515625 L 8.640625 0 L 1.3125 0 L 1.3125 -9.765625 L 8.4375 -9.765625 L 8.4375 -8.25 L 3.125 -8.25 L 3.125 -5.703125 L 7.84375 -5.703125 L 7.84375 -4.21875 L 3.125 -4.21875 L 3.125 -1.515625 Z M 8.640625 -1.515625 "/></g></g></g><g fill="#feba00" fill-opacity="1"><g transform="translate(242.685056, 281.431549)"><g><path d="M 1.3125 -9.765625 L 3.125 -9.765625 L 3.125 -1.53125 L 8.234375 -1.53125 L 8.234375 0 L 1.3125 0 Z M 1.3125 -9.765625 "/></g></g></g><g fill="#feba00" fill-opacity="1"><g transform="translate(254.456746, 281.431549)"><g><path d="M 5.875 0.140625 C 4.875 0.140625 3.972656 -0.0703125 3.171875 -0.5 C 2.378906 -0.9375 1.753906 -1.535156 1.296875 -2.296875 C 0.835938 -3.066406 0.609375 -3.929688 0.609375 -4.890625 C 0.609375 -5.835938 0.835938 -6.691406 1.296875 -7.453125 C 1.753906 -8.222656 2.378906 -8.820312 3.171875 -9.25 C 3.972656 -9.6875 4.875 -9.90625 5.875 -9.90625 C 6.875 -9.90625 7.769531 -9.6875 8.5625 -9.25 C 9.363281 -8.820312 9.992188 -8.226562 10.453125 -7.46875 C 10.910156 -6.707031 11.140625 -5.847656 11.140625 -4.890625 C 11.140625 -3.929688 10.910156 -3.066406 10.453125 -2.296875 C 9.992188 -1.535156 9.363281 -0.9375 8.5625 -0.5 C 7.769531 -0.0703125 6.875 0.140625 5.875 0.140625 Z M 5.875 -1.453125 C 6.519531 -1.453125 7.101562 -1.597656 7.625 -1.890625 C 8.144531 -2.179688 8.554688 -2.585938 8.859375 -3.109375 C 9.160156 -3.640625 9.3125 -4.234375 9.3125 -4.890625 C 9.3125 -5.535156 9.160156 -6.117188 8.859375 -6.640625 C 8.554688 -7.171875 8.144531 -7.582031 7.625 -7.875 C 7.101562 -8.164062 6.519531 -8.3125 5.875 -8.3125 C 5.21875 -8.3125 4.628906 -8.164062 4.109375 -7.875 C 3.585938 -7.582031 3.175781 -7.171875 2.875 -6.640625 C 2.582031 -6.117188 2.4375 -5.535156 2.4375 -4.890625 C 2.4375 -4.234375 2.582031 -3.640625 2.875 -3.109375 C 3.175781 -2.585938 3.585938 -2.179688 4.109375 -1.890625 C 4.628906 -1.597656 5.21875 -1.453125 5.875 -1.453125 Z M 5.875 -1.453125 "/></g></g></g><g fill="#feba00" fill-opacity="1"><g transform="translate(269.617156, 281.431549)"><g><path d="M 5.328125 -9.765625 C 6.171875 -9.765625 6.90625 -9.625 7.53125 -9.34375 C 8.164062 -9.070312 8.648438 -8.675781 8.984375 -8.15625 C 9.316406 -7.632812 9.484375 -7.015625 9.484375 -6.296875 C 9.484375 -5.585938 9.316406 -4.96875 8.984375 -4.4375 C 8.648438 -3.914062 8.164062 -3.515625 7.53125 -3.234375 C 6.90625 -2.953125 6.171875 -2.8125 5.328125 -2.8125 L 3.125 -2.8125 L 3.125 0 L 1.3125 0 L 1.3125 -9.765625 Z M 5.25 -4.359375 C 6.039062 -4.359375 6.640625 -4.523438 7.046875 -4.859375 C 7.453125 -5.191406 7.65625 -5.671875 7.65625 -6.296875 C 7.65625 -6.921875 7.453125 -7.398438 7.046875 -7.734375 C 6.640625 -8.066406 6.039062 -8.234375 5.25 -8.234375 L 3.125 -8.234375 L 3.125 -4.359375 Z M 5.25 -4.359375 "/></g></g></g><g fill="#feba00" fill-opacity="1"><g transform="translate(283.159887, 281.431549)"><g><path d="M 8.640625 -1.515625 L 8.640625 0 L 1.3125 0 L 1.3125 -9.765625 L 8.4375 -9.765625 L 8.4375 -8.25 L 3.125 -8.25 L 3.125 -5.703125 L 7.84375 -5.703125 L 7.84375 -4.21875 L 3.125 -4.21875 L 3.125 -1.515625 Z M 8.640625 -1.515625 "/></g></g></g><g fill="#feba00" fill-opacity="1"><g transform="translate(295.921697, 281.431549)"><g><path d="M 7.703125 0 L 5.703125 -2.859375 C 5.617188 -2.847656 5.492188 -2.84375 5.328125 -2.84375 L 3.125 -2.84375 L 3.125 0 L 1.3125 0 L 1.3125 -9.765625 L 5.328125 -9.765625 C 6.171875 -9.765625 6.90625 -9.625 7.53125 -9.34375 C 8.164062 -9.070312 8.648438 -8.675781 8.984375 -8.15625 C 9.316406 -7.632812 9.484375 -7.015625 9.484375 -6.296875 C 9.484375 -5.554688 9.300781 -4.921875 8.9375 -4.390625 C 8.582031 -3.859375 8.070312 -3.460938 7.40625 -3.203125 L 9.65625 0 Z M 7.65625 -6.296875 C 7.65625 -6.921875 7.453125 -7.398438 7.046875 -7.734375 C 6.640625 -8.066406 6.039062 -8.234375 5.25 -8.234375 L 3.125 -8.234375 L 3.125 -4.34375 L 5.25 -4.34375 C 6.039062 -4.34375 6.640625 -4.507812 7.046875 -4.84375 C 7.453125 -5.1875 7.65625 -5.671875 7.65625 -6.296875 Z M 7.65625 -6.296875 "/></g></g></g></svg>