<svg xmlns="http://www.w3.org/2000/svg" xmlns:xlink="http://www.w3.org/1999/xlink" width="500" zoomAndPan="magnify" viewBox="0 0 375 374.999991" height="500" preserveAspectRatio="xMidYMid meet" version="1.0"><path fill="#feba00" d="M 219.289062 262.738281 C 229.757812 272.917969 247.683594 276.757812 262.984375 268.523438 C 274.414062 262.359375 284.527344 249.703125 283.289062 231.769531 C 282.453125 219.621094 261.441406 184.960938 249.554688 165.484375 C 240.578125 150.757812 233.09375 134.792969 220.425781 122.746094 C 194.101562 97.738281 161.535156 112.285156 150.785156 139.417969 C 159.8125 134.542969 166.539062 131.28125 182.597656 134.035156 C 211.902344 139.0625 226.875 178.949219 240.503906 202.695312 C 243.816406 208.453125 247.050781 214.113281 250.566406 220.125 C 252.765625 223.886719 255.269531 228.308594 256.308594 232.527344 C 259.164062 244.171875 247.683594 250.414062 237.847656 242.152344 C 224.953125 231.316406 211.929688 201.558594 205.710938 190.492188 C 195.59375 172.457031 183.429688 153.738281 157.359375 158.136719 C 131.316406 162.554688 120.847656 189.6875 106.738281 214.71875 C 90.378906 243.691406 112.707031 276.988281 145.375 272.414062 C 154.984375 271.074219 161.609375 266.78125 166.769531 261.148438 C 170.28125 257.332031 177.691406 246.394531 179.613281 241.46875 L 164.769531 215.832031 C 164.515625 216.058594 164.390625 216.261719 163.632812 217.167969 L 153.769531 233.890625 C 142.59375 252.988281 126.816406 248.289062 127.851562 235.457031 C 128.585938 225.960938 137.890625 213.152344 140.773438 208.253906 C 149.292969 193.703125 162.191406 170.234375 177.539062 194.257812 C 180.347656 198.679688 183.429688 204.5625 185.503906 208.101562 C 187.503906 211.484375 189.070312 214.339844 191.019531 217.75 C 200.070312 231.894531 207.679688 251.449219 219.289062 262.738281 Z M 219.289062 262.738281 " fill-opacity="1" fill-rule="evenodd"/></svg>